# xmcd CD database file
#
# Track frame offsets:
#	150
#	24460
#	45462
#	66080
#	90360
#	114675
#	137900
#	163502
#	182790
#	214090
#
# Disc length: 3179 seconds
#
# Revision: 4
# Processed by: cddbd v1.5.2PL0 Copyright (c) Steve Scherf et al.
# Submitted via: CDex 1.70beta2
#
DISCID=840c690a
DTITLE=Bill Evans Jim Hall - Undercurrent
DYEAR=1962
DGENRE=Jazz
TTITLE0=My Funny Valentine
TTITLE1=I Hear A Rhapsody
TTITLE2=Dream Gypsy
TTITLE3=Romain
TTITLE4=Skating In Central Park
TTITLE5=Darn That Dream
TTITLE6=Stairway To The Stars
TTITLE7=I'm Getting Sentimental Over You
TTITLE8=My Funny Valentine (Alternate Take)
TTITLE9=Romain (Alternate Take)
EXTD=Ripped by Ano YEAR: 1962
EXTT0=
EXTT1=
EXTT2=
EXTT3=
EXTT4=
EXTT5=
EXTT6=
EXTT7=
EXTT8=
EXTT9=
PLAYORDER=
